<svg xmlns="http://www.w3.org/2000/svg" width="216" height="85" viewBox="-49 -4 171 105.2" id="itsd_logo"><path d="M12.2 5h8.4v9.3h-8.4V5zM12.2 23.3h8.4v48.4h-8.4V23.3z" class="a"/><path d="M34.9 9.5h8.4v13.6h7.9v6.7h-7.9v31.7c0 1.7 0.6 2.8 1.8 3.4 0.6 0.3 1.7 0.5 3.2 0.5 0.4 0 0.8 0 1.3 0 0.5 0 1-0.1 1.6-0.2v6.5c-1 0.3-1.9 0.5-3 0.6 -1 0.1-2.1 0.2-3.3 0.2 -3.9 0-6.5-1-7.9-2.9 -1.4-2-2.1-4.5-2.1-7.6V29.8h-6.7v-6.7h6.7V9.5H34.9z" class="a"/><path d="M64.4 56.5c0.3 2.7 1 4.8 2.1 6.3 2.1 2.6 5.8 3.9 11.1 3.9 3.1 0 5.9-0.7 8.3-2 2.4-1.3 3.6-3.3 3.6-6.1 0-2.1-1-3.7-2.9-4.8 -1.2-0.7-3.6-1.4-7.2-2.3l-6.7-1.6c-4.3-1-7.4-2.2-9.5-3.4 -3.6-2.2-5.4-5.3-5.4-9.2 0-4.6 1.7-8.3 5.1-11.2 3.4-2.8 8-4.3 13.8-4.3 7.5 0 13 2.1 16.3 6.4 2.1 2.7 3.1 5.7 3 8.8h-7.8c-0.2-1.8-0.8-3.5-2-5 -2-2.1-5.3-3.2-10.2-3.2 -3.2 0-5.6 0.6-7.3 1.8 -1.7 1.2-2.5 2.7-2.5 4.7 0 2.1 1.1 3.8 3.3 5.1 1.3 0.8 3.1 1.4 5.5 2l5.6 1.3c6.1 1.4 10.2 2.8 12.2 4.1 3.2 2.1 4.8 5.4 4.8 9.9 0 4.3-1.7 8.1-5.1 11.2 -3.4 3.1-8.5 4.7-15.4 4.7 -7.4 0-12.7-1.6-15.8-4.9 -3.1-3.3-4.8-7.3-5-12.2h8V56.5z" class="a"/><path d="M133.9 24.6c1.5 0.9 3.1 2.5 5 4.8V4.8h8v66.9h-7.5v-6.8c-1.9 3-4.2 5.2-6.8 6.5 -2.6 1.3-5.7 2-9.1 2 -5.5 0-10.2-2.3-14.3-6.8 -4-4.6-6-10.6-6-18.2 0-7.1 1.8-13.2 5.5-18.4 3.7-5.2 8.9-7.8 15.7-7.8C128.2 22.2 131.4 23 133.9 24.6zM115.4 61c2.2 3.5 5.8 5.3 10.7 5.3 3.8 0 7-1.6 9.4-4.9 2.5-3.3 3.7-7.9 3.7-14 0-6.1-1.3-10.7-3.8-13.6 -2.5-2.9-5.7-4.4-9.4-4.4 -4.2 0-7.5 1.6-10.1 4.7s-3.9 7.8-3.9 13.9C112 53.2 113.1 57.5 115.4 61z" class="a"/><path d="M167.5 79.9c-57.3-5.7-104.1 8.1-132.9 20.4H16.5c58.9-32.3 126.6-25.2 151.1-21.1V79.9z" class="a"/></svg>